<svg width="22" height="22" viewBox="0 0 22 22" fill="none" xmlns="http://www.w3.org/2000/svg">
<path fill-rule="evenodd" clip-rule="evenodd" d="M21.7708 21.1292L20.4875 16.0875C21.3125 14.575 21.7708 12.8334 21.7708 11C21.7708 5.04169 16.9583 0.229187 11 0.229187C5.04163 0.229187 0.229126 5.04169 0.229126 11C0.229126 16.9584 5.04163 21.7709 11 21.7709C12.8333 21.7709 14.575 21.3125 16.0875 20.4875L21.1291 21.7709C21.4958 21.8625 21.8625 21.4959 21.7708 21.1292ZM20.3958 11C20.3958 12.8334 19.9375 14.2084 19.2041 15.5834C19.1125 15.7667 19.0666 15.9959 19.1125 16.225L20.075 20.075L16.2708 19.1125C16.0416 19.0667 15.8125 19.0667 15.6291 19.2042C14.8041 19.6625 13.2458 20.3959 11.0458 20.3959C5.82079 20.3959 1.60413 16.1792 1.60413 11C1.60413 5.82085 5.82079 1.60419 11 1.60419C16.1791 1.60419 20.3958 5.82085 20.3958 11Z" fill="#262626"/>
</svg>
