<svg width="22" height="22" viewBox="0 0 22 22" fill="none" xmlns="http://www.w3.org/2000/svg">
<g clip-path="url(#clip0_11_231)">
<path d="M11 22H10.8625L0.55 19.7083C0.229167 19.6166 0 19.3416 0 19.0208V0.687476C0 0.458309 0.0916667 0.274976 0.275 0.137476C0.458333 -2.44164e-05 0.641667 -0.0458577 0.825 -2.4413e-05L11.1375 2.29164C11.4583 2.38331 11.6875 2.65831 11.6875 2.97914V21.3125C11.6875 21.5416 11.5958 21.725 11.4125 21.8625C11.3208 21.9541 11.1375 22 11 22ZM1.375 18.4708L10.3125 20.4416V3.52914L1.375 1.55831V18.4708Z" fill="#262626"/>
<path d="M11 22C10.8625 22 10.6792 21.9541 10.5875 21.8625C10.4042 21.725 10.3125 21.5416 10.3125 21.3125V2.97914C10.3125 2.65831 10.5417 2.38331 10.8625 2.29164L21.175 -2.4413e-05C21.3583 -0.0458577 21.5875 -2.44164e-05 21.7708 0.137476C21.9083 0.274976 22 0.458309 22 0.687476V19.0208C22 19.3416 21.7708 19.6166 21.45 19.7083L11.1375 22H11ZM11.6875 3.52914V20.4416L20.625 18.4708V1.55831L11.6875 3.52914V3.52914Z" fill="#262626"/>
<path d="M13.9791 17.7834C13.6583 17.7834 13.3833 17.5542 13.2916 17.2334C13.2 16.8667 13.4291 16.5 13.7958 16.4084L18.15 15.4459C18.5166 15.3542 18.8833 15.5834 18.975 15.95C19.0666 16.3167 18.8375 16.6834 18.4708 16.775L14.1166 17.7375C14.0708 17.7834 14.025 17.7834 13.9791 17.7834V17.7834ZM8.02079 17.7834H7.88329L3.52913 16.8209C3.16246 16.7292 2.93329 16.3625 3.02496 15.9959C3.11663 15.6292 3.48329 15.4 3.84996 15.4917L8.20413 16.4542C8.57079 16.5459 8.79996 16.9125 8.70829 17.2792C8.61663 17.5542 8.34163 17.7834 8.02079 17.7834ZM8.02079 11.3667H7.88329L3.52913 10.4042C3.20829 10.3125 2.97913 10.0375 2.97913 9.71671V4.90421C2.97913 4.67504 3.07079 4.49171 3.25413 4.35421C3.43746 4.21671 3.62079 4.17088 3.84996 4.21671L8.20413 5.17921C8.52496 5.27088 8.75413 5.54588 8.75413 5.86671V10.6792C8.75413 10.9084 8.66246 11.0917 8.47913 11.2292C8.34163 11.3209 8.15829 11.3667 8.02079 11.3667V11.3667ZM4.35413 9.16671L7.33329 9.80838V6.41671L4.35413 5.77505V9.16671V9.16671ZM13.9791 11.3667C13.8416 11.3667 13.6583 11.3209 13.5666 11.2292C13.3833 11.0917 13.2916 10.9084 13.2916 10.6792V5.86671C13.2916 5.54588 13.5208 5.27088 13.8416 5.17921L18.1958 4.21671C18.3791 4.17088 18.6083 4.21671 18.7916 4.35421C18.975 4.49171 19.0666 4.67504 19.0666 4.90421V9.71671C19.0666 10.0375 18.8375 10.3125 18.5166 10.4042L14.1625 11.3667H13.9791V11.3667ZM14.6666 6.41671V9.80838L17.6458 9.16671V5.77505L14.6666 6.41671ZM13.9791 15.0334C13.6583 15.0334 13.3833 14.8042 13.2916 14.4834C13.2 14.1167 13.4291 13.75 13.7958 13.6584L18.15 12.6959C18.5166 12.6042 18.8833 12.8334 18.975 13.2C19.0666 13.5667 18.8375 13.9334 18.4708 14.025L14.1166 14.9875C14.0708 15.0334 14.025 15.0334 13.9791 15.0334V15.0334Z" fill="#262626"/>
</g>
<defs>
<clipPath id="clip0_11_231">
<rect width="22" height="22" fill="white"/>
</clipPath>
</defs>
</svg>
