<svg width="22" height="22" viewBox="0 0 22 22" fill="none" xmlns="http://www.w3.org/2000/svg">
<path d="M16.5917 7.65415L13.2917 10.175C13.0625 10.3583 12.7417 10.3583 12.5125 10.175L10.0375 8.34165C9.30421 7.79165 8.25004 7.97498 7.74587 8.75415L4.62921 13.6583C4.30837 14.1166 4.90421 14.6666 5.36254 14.3458L8.70837 11.825C8.93754 11.6416 9.25837 11.6416 9.48754 11.825L11.9625 13.6583C12.6959 14.2083 13.75 14.025 14.2542 13.2458L17.3709 8.34165C17.6459 7.83748 17.05 7.33331 16.5917 7.65415V7.65415ZM11 0.458313C5.04171 0.458313 0.458374 4.81248 0.458374 10.6791C0.458374 13.75 1.69587 16.4083 3.75837 18.2416C3.94171 18.3791 4.03337 18.6083 4.03337 18.8375L4.12504 20.7166C4.12504 21.175 4.53754 21.5416 4.95004 21.5416C5.04171 21.5416 5.17921 21.5416 5.27087 21.45L7.37921 20.5333C7.47087 20.4875 7.60837 20.4416 7.70004 20.4416C7.79171 20.4416 7.83754 20.4416 7.92921 20.4875C8.89171 20.7625 9.90004 20.9 11 20.9C16.9584 20.9 21.5417 16.5458 21.5417 10.6791C21.5417 4.81248 16.9584 0.458313 11 0.458313ZM11 19.525C10.0834 19.525 9.16671 19.3875 8.29587 19.1583C8.11254 19.1125 7.92921 19.0666 7.70004 19.0666C7.37921 19.0666 7.10421 19.1125 6.78337 19.25L5.40837 19.8458V18.7916C5.40837 18.1958 5.13337 17.6458 4.67504 17.2333C2.84171 15.5833 1.83337 13.2458 1.83337 10.6791C1.83337 5.63748 5.77504 1.83331 11 1.83331C16.225 1.83331 20.1667 5.63748 20.1667 10.6791C20.1667 15.7208 16.225 19.525 11 19.525Z" fill="#262626"/>
</svg>
