<svg width="22" height="22" viewBox="0 0 22 22" fill="none" xmlns="http://www.w3.org/2000/svg">
<g clip-path="url(#clip0_11_213)">
<path d="M16.85 22.06H4.25C3.69021 22.066 3.13485 21.9602 2.6165 21.7488C2.09814 21.5373 1.62723 21.2245 1.23137 20.8286C0.835517 20.4328 0.522691 19.9619 0.311242 19.4435C0.0997921 18.9252 -0.0060241 18.3698 -7.16857e-07 17.81V5.21002C-0.0060241 4.65023 0.0997921 4.09487 0.311242 3.57652C0.522691 3.05816 0.835517 2.58725 1.23137 2.19139C1.62723 1.79554 2.09814 1.48271 2.6165 1.27126C3.13485 1.05981 3.69021 0.953998 4.25 0.960021H11.5C11.6989 0.960021 11.8897 1.03904 12.0303 1.17969C12.171 1.32034 12.25 1.51111 12.25 1.71002C12.25 1.90893 12.171 2.0997 12.0303 2.24035C11.8897 2.381 11.6989 2.46002 11.5 2.46002H4.25C3.88794 2.45668 3.52884 2.52554 3.19368 2.66255C2.85853 2.79957 2.55405 3.00201 2.29802 3.25804C2.04199 3.51407 1.83955 3.81855 1.70253 4.15371C1.56551 4.48886 1.49666 4.84796 1.5 5.21002V17.81C1.49666 18.1721 1.56551 18.5312 1.70253 18.8663C1.83955 19.2015 2.04199 19.506 2.29802 19.762C2.55405 20.018 2.85853 20.2205 3.19368 20.3575C3.52884 20.4945 3.88794 20.5634 4.25 20.56H16.85C17.2121 20.5634 17.5712 20.4945 17.9063 20.3575C18.2415 20.2205 18.546 20.018 18.802 19.762C19.058 19.506 19.2605 19.2015 19.3975 18.8663C19.5345 18.5312 19.6033 18.1721 19.6 17.81V10.56C19.6 10.3611 19.679 10.1703 19.8197 10.0297C19.9603 9.88904 20.1511 9.81002 20.35 9.81002C20.5489 9.81002 20.7397 9.88904 20.8803 10.0297C21.021 10.1703 21.1 10.3611 21.1 10.56V17.81C21.106 18.3698 21.0002 18.9252 20.7888 19.4435C20.5773 19.9619 20.2645 20.4328 19.8686 20.8286C19.4728 21.2245 19.0019 21.5373 18.4835 21.7488C17.9652 21.9602 17.4098 22.066 16.85 22.06V22.06Z" fill="#262626"/>
<path d="M8.75002 17.4097H5.40002C5.20111 17.4097 5.01035 17.3307 4.86969 17.19C4.72904 17.0494 4.65002 16.8586 4.65002 16.6597V13.3097C4.6502 13.1108 4.72933 12.9202 4.87002 12.7797L17.05 0.629679C17.4657 0.2235 18.0238 -0.00390625 18.605 -0.00390625C19.1862 -0.00390625 19.7443 0.2235 20.16 0.629679L21.41 1.87968C21.8162 2.29537 22.0436 2.85349 22.0436 3.43468C22.0436 4.01587 21.8162 4.57399 21.41 4.98968L9.26002 17.1897C9.12444 17.3256 8.94191 17.4043 8.75002 17.4097V17.4097ZM6.15002 15.9097H8.44002L20.37 3.90968C20.4984 3.77487 20.57 3.59584 20.57 3.40968C20.57 3.22352 20.4984 3.04449 20.37 2.90968L19.12 1.65968C18.9852 1.53129 18.8062 1.45968 18.62 1.45968C18.4339 1.45968 18.2548 1.53129 18.12 1.65968L6.12002 13.5897L6.15002 15.9097Z" fill="#262626"/>
<path d="M19.1 7.01001C18.9982 7.01231 18.8971 6.99401 18.8025 6.9562C18.708 6.9184 18.6221 6.86186 18.55 6.79001L15.27 3.51001C15.1375 3.36783 15.0654 3.17979 15.0688 2.98549C15.0723 2.79119 15.151 2.6058 15.2884 2.46839C15.4258 2.33098 15.6112 2.25226 15.8055 2.24884C15.9998 2.24541 16.1878 2.31753 16.33 2.45001L19.63 5.75001C19.7002 5.8193 19.7559 5.90183 19.7939 5.99281C19.8319 6.08379 19.8514 6.18141 19.8514 6.28001C19.8514 6.37861 19.8319 6.47623 19.7939 6.56721C19.7559 6.65819 19.7002 6.74072 19.63 6.81001C19.486 6.94294 19.2959 7.01466 19.1 7.01001V7.01001Z" fill="#262626"/>
</g>
<defs>
<clipPath id="clip0_11_213">
<rect width="22" height="22" fill="white"/>
</clipPath>
</defs>
</svg>
