<svg width="22" height="22" viewBox="0 0 22 22" fill="none" xmlns="http://www.w3.org/2000/svg">
<path d="M9.16671 16.5C10.7938 16.4996 12.3739 15.955 13.6556 14.9526L17.6853 18.9823L18.9815 17.6861L14.9518 13.6565C15.9546 12.3747 16.4996 10.7941 16.5 9.16665C16.5 5.12323 13.2101 1.83331 9.16671 1.83331C5.12329 1.83331 1.83337 5.12323 1.83337 9.16665C1.83337 13.2101 5.12329 16.5 9.16671 16.5ZM9.16671 3.66665C12.2 3.66665 14.6667 6.1334 14.6667 9.16665C14.6667 12.1999 12.2 14.6666 9.16671 14.6666C6.13346 14.6666 3.66671 12.1999 3.66671 9.16665C3.66671 6.1334 6.13346 3.66665 9.16671 3.66665Z" fill="#262626"/>
</svg>
