<svg width="22" height="22" viewBox="0 0 22 22" fill="none" xmlns="http://www.w3.org/2000/svg">
<path d="M7.08125 7.35626C7.08125 6.80626 6.6 6.32501 6.05 6.32501H3.36875C4.95 3.71251 7.8375 2.06251 11 2.06251C13.475 2.06251 15.8125 3.09376 17.5312 4.88126C17.875 5.29376 18.5625 5.29376 18.975 4.95001C19.3875 4.53751 19.3875 3.91876 19.0438 3.50626C16.9813 1.30626 14.025 0.0687601 11 0.0687601C7.35625 1.00556e-05 4.125 1.71876 2.0625 4.60626V2.40626C2.0625 1.85626 1.58125 1.37501 1.03125 1.37501C0.48125 1.37501 0 1.85626 0 2.40626V7.35626C0 7.90626 0.48125 8.38751 1.03125 8.38751H6.05C6.6 8.38751 7.08125 7.97501 7.08125 7.35626ZM20.9688 13.6125H16.0187C15.4687 13.6125 14.9875 14.0938 14.9875 14.6438C14.9875 15.1938 15.4687 15.675 16.0187 15.675H18.6313C17.05 18.2875 14.1625 19.9375 11 19.9375C8.525 19.9375 6.1875 18.9063 4.46875 17.1188C4.125 16.7063 3.4375 16.7063 3.025 17.05C2.6125 17.4625 2.6125 18.0813 2.95625 18.4938C5.01875 20.6938 7.975 21.9313 11 21.9313C14.6438 21.9313 17.875 20.2125 19.9375 17.325V19.525C19.9375 20.075 20.4187 20.5563 20.9688 20.5563C21.5188 20.5563 22 20.075 22 19.525V14.575C22 14.025 21.5188 13.6125 20.9688 13.6125V13.6125Z" fill="#262626"/>
</svg>
